<mxfile host="app.diagrams.net" agent="Mozilla/5.0 (Windows NT 10.0; Win64; x64) AppleWebKit/537.36 (KHTML, like Gecko) Chrome/139.0.0.0 Safari/537.36 Edg/139.0.0.0" version="28.1.1">
  <diagram name="Page-1" id="aHTIiGadA1QT5SFuTMa7">
    <mxGraphModel dx="1034" dy="666" grid="1" gridSize="10" guides="1" tooltips="1" connect="1" arrows="1" fold="1" page="1" pageScale="1" pageWidth="850" pageHeight="1100" math="0" shadow="0">
      <root>
        <mxCell id="0" />
        <mxCell id="1" parent="0" />
        <mxCell id="vguZPq8VJhJORUZ5BocR-1" value="Parent" style="whiteSpace=wrap;strokeWidth=2;" vertex="1" parent="1">
          <mxGeometry x="60" y="254" width="107" height="54" as="geometry" />
        </mxCell>
        <mxCell id="vguZPq8VJhJORUZ5BocR-2" value="Lumlyn Web App" style="whiteSpace=wrap;strokeWidth=2;" vertex="1" parent="1">
          <mxGeometry x="217" y="254" width="178" height="54" as="geometry" />
        </mxCell>
        <mxCell id="vguZPq8VJhJORUZ5BocR-3" value="PostHog (Analytics)" style="whiteSpace=wrap;strokeWidth=2;" vertex="1" parent="1">
          <mxGeometry x="476" y="80" width="198" height="54" as="geometry" />
        </mxCell>
        <mxCell id="vguZPq8VJhJORUZ5BocR-4" value="Email Provider (Brevo/Mailchimp)" style="whiteSpace=wrap;strokeWidth=2;" vertex="1" parent="1">
          <mxGeometry x="445" y="184" width="260" height="78" as="geometry" />
        </mxCell>
        <mxCell id="vguZPq8VJhJORUZ5BocR-5" value="CDN/Edge (Vercel)" style="whiteSpace=wrap;strokeWidth=2;" vertex="1" parent="1">
          <mxGeometry x="478" y="312" width="193" height="54" as="geometry" />
        </mxCell>
        <mxCell id="vguZPq8VJhJORUZ5BocR-6" value="Supabase Edge Functions" style="whiteSpace=wrap;strokeWidth=2;" vertex="1" parent="1">
          <mxGeometry x="455" y="416" width="239" height="54" as="geometry" />
        </mxCell>
        <mxCell id="vguZPq8VJhJORUZ5BocR-7" value="Supabase Postgres" style="whiteSpace=wrap;strokeWidth=2;" vertex="1" parent="1">
          <mxGeometry x="755" y="416" width="190" height="54" as="geometry" />
        </mxCell>
        <mxCell id="vguZPq8VJhJORUZ5BocR-8" value="" style="curved=1;startArrow=none;endArrow=block;exitX=1;exitY=0.5;entryX=0;entryY=0.5;rounded=0;" edge="1" parent="1" source="vguZPq8VJhJORUZ5BocR-1" target="vguZPq8VJhJORUZ5BocR-2">
          <mxGeometry relative="1" as="geometry">
            <Array as="points" />
          </mxGeometry>
        </mxCell>
        <mxCell id="vguZPq8VJhJORUZ5BocR-9" value="" style="curved=1;startArrow=none;endArrow=block;exitX=0.6;exitY=0;entryX=0;entryY=0.5;rounded=0;" edge="1" parent="1" source="vguZPq8VJhJORUZ5BocR-2" target="vguZPq8VJhJORUZ5BocR-3">
          <mxGeometry relative="1" as="geometry">
            <Array as="points">
              <mxPoint x="420" y="107" />
            </Array>
          </mxGeometry>
        </mxCell>
        <mxCell id="vguZPq8VJhJORUZ5BocR-10" value="" style="curved=1;startArrow=none;endArrow=block;exitX=0.8;exitY=0;entryX=0;entryY=0.5;rounded=0;" edge="1" parent="1" source="vguZPq8VJhJORUZ5BocR-2" target="vguZPq8VJhJORUZ5BocR-4">
          <mxGeometry relative="1" as="geometry">
            <Array as="points">
              <mxPoint x="420" y="223" />
            </Array>
          </mxGeometry>
        </mxCell>
        <mxCell id="vguZPq8VJhJORUZ5BocR-11" value="" style="curved=1;startArrow=none;endArrow=block;exitX=0.8;exitY=1;entryX=0;entryY=0.5;rounded=0;" edge="1" parent="1" source="vguZPq8VJhJORUZ5BocR-2" target="vguZPq8VJhJORUZ5BocR-5">
          <mxGeometry relative="1" as="geometry">
            <Array as="points">
              <mxPoint x="420" y="339" />
            </Array>
          </mxGeometry>
        </mxCell>
        <mxCell id="vguZPq8VJhJORUZ5BocR-12" value="" style="curved=1;startArrow=none;endArrow=block;exitX=0.6;exitY=1;entryX=0;entryY=0.5;rounded=0;" edge="1" parent="1" source="vguZPq8VJhJORUZ5BocR-2" target="vguZPq8VJhJORUZ5BocR-6">
          <mxGeometry relative="1" as="geometry">
            <Array as="points">
              <mxPoint x="420" y="443" />
            </Array>
          </mxGeometry>
        </mxCell>
        <mxCell id="vguZPq8VJhJORUZ5BocR-13" value="" style="curved=1;startArrow=none;endArrow=block;exitX=1;exitY=0.5;entryX=0;entryY=0.5;rounded=0;" edge="1" parent="1" source="vguZPq8VJhJORUZ5BocR-6" target="vguZPq8VJhJORUZ5BocR-7">
          <mxGeometry relative="1" as="geometry">
            <Array as="points" />
          </mxGeometry>
        </mxCell>
      </root>
    </mxGraphModel>
  </diagram>
</mxfile>
